<?xml version="1.0" encoding="iso-8859-1"?>
<!-- Uploaded to: SVG Repo, www.svgrepo.com, Generator: SVG Repo Mixer Tools -->
<svg version="1.1" id="Layer_1" xmlns="http://www.w3.org/2000/svg" xmlns:xlink="http://www.w3.org/1999/xlink" 
	 viewBox="0 0 512 512" xml:space="preserve">
<rect x="295.96" y="232.415" style="fill:#FFFFFF;" width="207.807" height="207.807"/>
<g>
	<rect x="295.96" y="184.453" style="fill:#E2804F;" width="207.807" height="55.952"/>
	<rect x="295.96" y="440.222" style="fill:#E2804F;" width="207.807" height="63.942"/>
</g>
<polyline style="fill:#F2BF7E;" points="295.963,352.304 8.224,352.304 8.224,24.601 391.877,24.601 391.877,184.456 
	295.963,184.456 295.963,352.304 "/>
<rect x="8.224" y="24.547" style="fill:#E2804F;" width="383.654" height="56.003"/>
<polygon points="368.599,16.768 368.599,0 352.932,0 352.932,16.768 336.22,16.768 336.22,0 320.553,0 320.553,16.768 
	303.842,16.768 303.842,0 288.175,0 288.175,16.768 272.508,16.768 272.508,0 256.841,0 256.841,16.768 239.085,16.768 239.085,0 
	223.418,0 223.418,16.768 207.751,16.768 207.751,0 192.084,0 192.084,16.768 175.372,16.768 175.372,0 159.705,0 159.705,16.768 
	144.038,16.768 144.038,0 128.371,0 128.371,16.768 112.704,16.768 112.704,0 97.037,0 97.037,16.768 80.326,16.768 80.326,0 
	64.659,0 64.659,16.768 46.903,16.768 46.903,0 31.236,0 31.236,16.768 0.391,16.768 0.391,360.138 279.978,360.138 
	279.978,344.471 16.058,344.471 16.058,87.735 31.236,87.735 31.236,72.068 16.058,72.068 16.058,32.435 31.236,32.435 
	31.236,48.046 46.903,48.046 46.903,32.435 64.659,32.435 64.659,48.046 80.326,48.046 80.326,32.435 97.037,32.435 97.037,48.046 
	112.704,48.046 112.704,32.435 128.371,32.435 128.371,48.046 144.038,48.046 144.038,32.435 159.705,32.435 159.705,48.046 
	175.372,48.046 175.372,32.435 192.084,32.435 192.084,48.046 207.751,48.046 207.751,32.435 223.418,32.435 223.418,48.046 
	239.085,48.046 239.085,32.435 256.841,32.435 256.841,48.046 272.508,48.046 272.508,32.435 288.175,32.435 288.175,48.046 
	303.842,48.046 303.842,32.435 320.553,32.435 320.553,48.046 336.22,48.046 336.22,32.435 352.932,32.435 352.932,48.046 
	368.599,48.046 368.599,32.435 384.043,32.435 384.043,72.068 46.903,72.068 46.903,87.735 384.043,87.735 384.043,168.472 
	399.71,168.472 399.71,16.768 "/>
<rect x="384.27" y="207.849" width="31.334" height="15.667"/>
<path d="M288.131,176.623V512h223.478V176.623H288.131z M495.941,192.29v241.164H303.798V192.29H495.941z M303.798,496.333v-47.212
	h192.144v47.212H303.798z"/>
<rect x="319.513" y="464.788" width="16.711" height="15.667"/>
<rect x="464.694" y="464.788" width="15.667" height="15.667"/>
<rect x="392.626" y="464.788" style="fill:#FFFFFF;" width="15.667" height="15.667"/>
<rect x="39.592" y="128.469" style="fill:#D4E4AC;" width="32.378" height="15.667"/>
<rect x="80.326" y="128.469" width="32.378" height="15.667"/>
<rect x="120.02" y="128.469" width="32.378" height="15.667"/>
<rect x="159.71" y="128.469" width="32.378" height="15.667"/>
<rect x="199.399" y="128.469" width="31.334" height="15.667"/>
<rect x="239.089" y="128.469" width="33.423" height="15.667"/>
<rect x="280.868" y="128.469" width="31.334" height="15.667"/>
<rect x="39.592" y="168.159" width="32.378" height="15.667"/>
<rect x="80.326" y="168.159" width="32.378" height="15.667"/>
<rect x="120.02" y="168.159" width="32.378" height="15.667"/>
<rect x="159.71" y="168.159" style="fill:#D4E4AC;" width="32.378" height="15.667"/>
<rect x="199.399" y="168.159" width="31.334" height="15.667"/>
<rect x="239.089" y="168.159" width="33.423" height="15.667"/>
<rect x="39.592" y="207.849" width="32.378" height="15.667"/>
<rect x="80.326" y="207.849" width="32.378" height="15.667"/>
<rect x="120.02" y="207.849" style="fill:#D4E4AC;" width="32.378" height="15.667"/>
<rect x="159.71" y="207.849" width="32.378" height="15.667"/>
<rect x="199.399" y="207.849" width="31.334" height="15.667"/>
<rect x="239.089" y="207.849" width="33.423" height="15.667"/>
<rect x="39.592" y="249.628" width="32.378" height="15.667"/>
<rect x="80.326" y="249.628" width="32.378" height="15.667"/>
<rect x="120.02" y="249.628" width="32.378" height="15.667"/>
<rect x="159.71" y="249.628" width="32.378" height="15.667"/>
<rect x="199.399" y="249.628" style="fill:#D4E4AC;" width="31.334" height="15.667"/>
<rect x="239.089" y="249.628" width="33.423" height="15.667"/>
<rect x="39.592" y="289.317" width="32.378" height="15.667"/>
<rect x="80.326" y="289.317" width="32.378" height="15.667"/>
<rect x="120.02" y="289.317" width="32.378" height="15.667"/>
<rect x="159.71" y="289.317" width="32.378" height="15.667"/>
<rect x="199.399" y="289.317" width="31.334" height="15.667"/>
<rect x="239.089" y="289.317" width="33.423" height="15.667"/>
<rect x="336.225" y="272.606" style="fill:#D4E4AC;" width="15.667" height="15.667"/>
<rect x="368.603" y="272.606" width="96.091" height="15.667"/>
<rect x="336.225" y="304.984" style="fill:#D4E4AC;" width="15.667" height="15.667"/>
<rect x="368.603" y="304.984" width="96.091" height="15.667"/>
<rect x="336.225" y="336.319" style="fill:#D4E4AC;" width="15.667" height="15.667"/>
<rect x="368.603" y="336.319" width="96.091" height="15.667"/>
<rect x="336.225" y="368.697" style="fill:#D4E4AC;" width="15.667" height="15.667"/>
<rect x="368.603" y="368.697" width="96.091" height="15.667"/>
</svg>