<?xml version="1.0" encoding="iso-8859-1"?>
<!-- Uploaded to: SVG Repo, www.svgrepo.com, Generator: SVG Repo Mixer Tools -->
<svg height="800px" width="800px" version="1.1" id="Layer_1" xmlns="http://www.w3.org/2000/svg" xmlns:xlink="http://www.w3.org/1999/xlink" 
	 viewBox="0 0 512 512" xml:space="preserve">
<path style="fill:#F2F2F2;" d="M501.846,503.983H10.154V74.288c0-17.71,14.356-32.067,32.067-32.067h427.557
	c17.711,0,32.067,14.356,32.067,32.067V503.983z"/>
<path style="fill:#EB6836;" d="M501.846,74.288c0-17.71-14.356-32.067-32.067-32.067H42.221c-17.71,0-32.067,14.356-32.067,32.067
	v36.698h491.691V74.288z"/>
<path style="fill:#E5E5E5;" d="M42.221,42.221c-17.71,0-32.067,14.356-32.067,32.067v429.695H307.19L61.64,42.221H42.221z"/>
<path style="fill:#C74B38;" d="M61.64,42.221H42.221c-17.71,0-32.067,14.356-32.067,32.067v36.698h88.052L61.64,42.221z"/>
<polygon style="fill:#62C9CC;" points="161.937,153.386 161.937,196.142 187.591,196.142 200.418,217.52 213.244,196.142 
	236.76,196.142 236.76,153.386 "/>
<polygon style="fill:#F7D04A;" points="281.653,266.689 281.653,309.445 307.307,309.445 320.134,330.823 332.96,309.445 
	356.476,309.445 356.476,266.689 "/>
<polygon style="fill:#EB6836;" points="97.804,379.992 97.804,422.747 123.457,422.747 136.284,444.125 149.111,422.747 
	172.626,422.747 172.626,379.992 "/>
<path d="M469.779,34.205h-26.188V8.017c0-4.427-3.588-8.017-8.017-8.017s-8.017,3.589-8.017,8.017v26.188h-43.825V8.017
	c0-4.427-3.588-8.017-8.017-8.017c-4.428,0-8.017,3.589-8.017,8.017v26.188h-43.825V8.017c0-4.427-3.588-8.017-8.017-8.017
	c-4.428,0-8.017,3.589-8.017,8.017v26.188h-43.825V8.017C264.017,3.589,260.428,0,256,0c-4.428,0-8.017,3.589-8.017,8.017v26.188
	h-43.825V8.017c0-4.427-3.588-8.017-8.017-8.017s-8.017,3.589-8.017,8.017v26.188h-43.825V8.017c0-4.427-3.588-8.017-8.017-8.017
	c-4.428,0-8.017,3.589-8.017,8.017v26.188H84.443V8.017C84.443,3.589,80.854,0,76.426,0s-8.017,3.589-8.017,8.017v26.188H42.221
	c-22.103,0-40.084,17.981-40.084,40.084v301.428c0,4.427,3.588,8.017,8.017,8.017s8.017-3.589,8.017-8.017V119.003h366.096
	c4.428,0,8.017-3.589,8.017-8.017c0-4.427-3.588-8.017-8.017-8.017H18.171V74.288c0-13.262,10.789-24.05,24.05-24.05h26.188V72.15
	c0,4.427,3.588,8.017,8.017,8.017s8.017-3.589,8.017-8.017V50.238h43.825V72.15c0,4.427,3.588,8.017,8.017,8.017
	c4.428,0,8.017-3.589,8.017-8.017V50.238h43.825V72.15c0,4.427,3.588,8.017,8.017,8.017s8.017-3.589,8.017-8.017V50.238h43.825
	V72.15c0,4.427,3.588,8.017,8.017,8.017c4.428,0,8.017-3.589,8.017-8.017V50.238h43.825V72.15c0,4.427,3.588,8.017,8.017,8.017
	c4.428,0,8.017-3.589,8.017-8.017V50.238h43.825V72.15c0,4.427,3.588,8.017,8.017,8.017c4.428,0,8.017-3.589,8.017-8.017V50.238
	h43.825V72.15c0,4.427,3.588,8.017,8.017,8.017s8.017-3.589,8.017-8.017V50.238h26.188c13.261,0,24.05,10.788,24.05,24.05v28.682
	h-66.806c-4.428,0-8.017,3.589-8.017,8.017c0,4.427,3.588,8.017,8.017,8.017h66.806v376.964H18.171v-77.495
	c0-4.427-3.588-8.017-8.017-8.017s-8.017,3.589-8.017,8.017v85.511c0,4.427,3.588,8.017,8.017,8.017h491.691
	c4.428,0,8.017-3.589,8.017-8.017V74.288C509.862,52.186,491.881,34.205,469.779,34.205z"/>
<path d="M64.134,234.622c0,4.427,3.588,8.017,8.017,8.017H439.85c4.428,0,8.017-3.589,8.017-8.017s-3.588-8.017-8.017-8.017H72.15
	C67.722,226.605,64.134,230.195,64.134,234.622z"/>
<path d="M183.052,204.159l10.49,17.486c3.058,5.095,10.691,5.096,13.749,0l10.491-17.486h18.977c4.428,0,8.017-3.589,8.017-8.017
	v-42.756c0-4.427-3.588-8.017-8.017-8.017h-74.823c-4.428,0-8.017,3.589-8.017,8.017v42.756c0,4.427,3.588,8.017,8.017,8.017
	H183.052z M169.954,161.403h58.789v26.722h-15.499c-2.817,0-5.426,1.477-6.875,3.892l-5.952,9.921l-5.952-9.921
	c-1.448-2.415-4.059-3.892-6.875-3.892h-17.637V161.403z"/>
<path d="M72.15,355.586H439.85c4.428,0,8.017-3.589,8.017-8.017c0-4.427-3.588-8.017-8.017-8.017H72.15
	c-4.428,0-8.017,3.589-8.017,8.017C64.134,351.996,67.722,355.586,72.15,355.586z"/>
<path d="M281.653,258.672c-4.428,0-8.017,3.589-8.017,8.017v42.756c0,4.427,3.588,8.017,8.017,8.017h21.115l10.49,17.486
	c3.058,5.095,10.691,5.096,13.749,0l10.491-17.486h18.977c4.428,0,8.017-3.589,8.017-8.017v-42.756c0-4.427-3.588-8.017-8.017-8.017
	H281.653z M348.459,301.428H332.96c-2.817,0-5.426,1.477-6.875,3.892l-5.952,9.921l-5.952-9.921
	c-1.448-2.415-4.059-3.892-6.875-3.892H289.67v-26.722h58.789V301.428z"/>
<path d="M72.15,469.244H439.85c4.428,0,8.017-3.589,8.017-8.017s-3.588-8.017-8.017-8.017H72.15c-4.428,0-8.017,3.589-8.017,8.017
	S67.722,469.244,72.15,469.244z"/>
<path d="M97.804,371.975c-4.428,0-8.017,3.589-8.017,8.017v42.756c0,4.427,3.588,8.017,8.017,8.017h21.115l10.49,17.486
	c3.058,5.095,10.691,5.096,13.749,0l10.491-17.486h18.977c4.428,0,8.017-3.589,8.017-8.017v-42.756c0-4.427-3.588-8.017-8.017-8.017
	H97.804z M164.61,414.731h-15.499c-2.817,0-5.426,1.477-6.875,3.892l-5.952,9.921l-5.952-9.921
	c-1.448-2.415-4.059-3.892-6.875-3.892H105.82v-26.722h58.789V414.731z"/>
</svg>