<svg xmlns="http://www.w3.org/2000/svg" xmlns:xlink="http://www.w3.org/1999/xlink" viewBox="0,0,256,256" width="32px" height="32px"><g fill="none" fill-rule="nonzero" stroke="none" stroke-width="1" stroke-linecap="butt" stroke-linejoin="miter" stroke-miterlimit="10" stroke-dasharray="" stroke-dashoffset="0" font-family="none" font-weight="none" font-size="none" text-anchor="none" style="mix-blend-mode: normal"><g transform="scale(8,8)"><path d="M14.479,24.184l-7.481,-8.728l3.037,-2.604l4.518,5.272l7.477,-8.308l2.972,2.676z" fill="#ed0049"></path><path d="M16,5c5.728,0 10.442,4.402 10.949,10h4c-0.516,-7.816 -7.002,-14 -14.949,-14c-7.947,0 -14.433,6.184 -14.95,14h4c0.508,-5.598 5.222,-10 10.95,-10z" fill="#0f518c"></path><path d="M16,27c-5.728,0 -10.442,-4.402 -10.949,-10h-4c0.516,7.816 7.002,14 14.949,14c7.947,0 14.433,-6.184 14.95,-14h-4c-0.508,5.598 -5.222,10 -10.95,10z" fill="#0f518c"></path></g></g></svg>