<?xml version="1.0" encoding="UTF-8"?>
<svg version="1.1" xmlns="http://www.w3.org/2000/svg" width="512" height="512">
<path d="M0 0 C0.6904541 0.21430664 1.3809082 0.42861328 2.09228516 0.64941406 C32.73053849 10.51511832 57.97146901 31.57732634 73 59.99609375 C81.13743226 75.98862341 86.04846399 93.18349185 86.375 111.1875 C86.41238281 111.98091797 86.44976562 112.77433594 86.48828125 113.59179688 C86.57563082 119.37142655 86.57563082 119.37142655 83.6640625 122.55078125 C81 124 81 124 78 124 C78.01160156 124.58007812 78.02320313 125.16015625 78.03515625 125.7578125 C78.07769072 129.44008208 78.10315937 132.59529784 77.1875 136.1875 C76.64949459 139.27907669 76.64949459 139.27907669 79.5 141.875 C79.96792969 142.37241699 80.43585938 142.86983398 80.91796875 143.38232422 C82.56953281 145.85147211 81.92250791 148.08531999 81.46289062 150.89501953 C77.89331803 167.12753796 67.84900024 182.76060443 57 195 C56.38898438 195.75410156 55.77796875 196.50820312 55.1484375 197.28515625 C37.41875393 218.67394473 10.02355529 231.2628088 -17 235 C-16.95784002 241.54341482 -16.88505058 248.08601244 -16.79248047 254.62890625 C-16.76452208 256.84758099 -16.74318474 259.06635068 -16.72900391 261.28515625 C-16.54712684 288.15446194 -11.23884874 310.35640781 7.5859375 330.63671875 C10.93926639 333.91950835 14.55952059 336.80032173 18.2265625 339.72265625 C30.13465263 349.50070773 38.5689355 360.53928276 41 376 C42.23108253 393.83274773 39.52728877 408.27524146 28.3125 422.625 C17.79797101 434.20463712 3.40794128 440.27560431 -12.04710197 441.11059952 C-17.66076462 441.27781405 -23.27531192 441.22990773 -28.890625 441.1953125 C-30.68951255 441.19157434 -32.48840215 441.18873117 -34.28729248 441.18673706 C-38.98241977 441.17916374 -43.67741991 441.15957068 -48.37249756 441.1373291 C-53.1793038 441.1167336 -57.98613094 441.10770627 -62.79296875 441.09765625 C-72.19536783 441.07631778 -81.59767327 441.04225959 -91 441 C-91.07782715 442.39847168 -91.07782715 442.39847168 -91.15722656 443.82519531 C-91.23424805 445.06366211 -91.31126953 446.30212891 -91.390625 447.578125 C-91.49938965 449.40972168 -91.49938965 449.40972168 -91.61035156 451.27832031 C-93.43603955 468.71615717 -103.02145305 483.51883594 -116.03515625 494.828125 C-119.52128066 497.3818604 -123.0899914 499.42124386 -126.9375 501.375 C-127.56914062 501.69678223 -128.20078125 502.01856445 -128.8515625 502.35009766 C-138.0518325 506.76128188 -147.14595673 508.54701238 -157.3125 508.4375 C-158.31651855 508.42920166 -159.32053711 508.42090332 -160.35498047 508.41235352 C-177.88183092 508.01574819 -192.9054983 501.12309149 -205.34375 488.81640625 C-216.17921227 477.32762934 -222.48129587 463.41711145 -223.54296875 447.74609375 C-223.62957764 446.48337646 -223.71618652 445.22065918 -223.80541992 443.91967773 C-223.86963135 442.95618408 -223.93384277 441.99269043 -224 441 C-224.98812683 441.00444122 -225.97625366 441.00888245 -226.99432373 441.01345825 C-236.35003883 441.05417012 -245.70573573 441.0840635 -255.06151962 441.10362434 C-259.87031524 441.11401913 -264.6790388 441.12809881 -269.48779297 441.15087891 C-274.13677927 441.17276193 -278.78569666 441.18460092 -283.43473053 441.18975449 C-285.19995456 441.19342269 -286.96517523 441.20058498 -288.73036957 441.21146011 C-309.18681668 441.33236802 -324.9849691 438.77550415 -340.625 424.625 C-341.40875 423.75875 -342.1925 422.8925 -343 422 C-343.55429687 421.38898438 -344.10859375 420.77796875 -344.6796875 420.1484375 C-355.41940932 407.47280016 -356.95124225 392.90177001 -356 377 C-353.01761559 356.89825939 -338.70633395 344.14801168 -323.671875 332.140625 C-308.70078303 319.84728932 -299.20501187 301.14896779 -297 282 C-296.6235533 275.87811263 -296.45267171 269.75336937 -296.41455078 263.62036133 C-296.27164781 252.08777001 -296.27164781 252.08777001 -293 248 C-291.35 247.67 -289.7 247.34 -288 247 C-288 241.39 -288 235.78 -288 230 C-289.32 229.67 -290.64 229.34 -292 229 C-294.62903646 227.24730903 -294.97346109 226.12738679 -295.625 223 C-299.18325057 194.78841581 -285.6657936 161.45040085 -268.9074707 139.41821289 C-266.66469417 136.56076387 -264.34693108 133.77213772 -262 131 C-261.236875 130.08347656 -260.47375 129.16695312 -259.6875 128.22265625 C-254.35609959 122.04394399 -248.47522732 116.94765076 -242 112 C-240.98550781 111.19691406 -239.97101563 110.39382812 -238.92578125 109.56640625 C-226.27418582 99.83001278 -211.21282766 92.77404896 -196 88 C-196.474375 86.783125 -196.94875 85.56625 -197.4375 84.3125 C-201.55007457 73.76285219 -200.87102587 62.54818573 -197 52 C-195.25656236 48.77195441 -193.2392364 45.89960103 -191 43 C-190.4225 42.13375 -189.845 41.2675 -189.25 40.375 C-180.51270937 31.15230434 -169.52904773 26.93036161 -156.9375 26.5 C-146.93645529 26.83336816 -138.80770907 29.83367883 -130.83984375 35.828125 C-128.94183931 37.26861153 -128.94183931 37.26861153 -126 37 C-123.9931781 35.11034285 -122.12439417 33.20134212 -120.25 31.1875 C-105.61743574 16.09165738 -88.10289394 6.08063853 -68 0 C-66.75089844 -0.39316406 -65.50179688 -0.78632812 -64.21484375 -1.19140625 C-44.23417021 -6.85961418 -19.78689755 -6.17137037 0 0 Z " fill="#F6E148" transform="translate(391,4)"/>
<path d="M0 0 C0.6904541 0.21430664 1.3809082 0.42861328 2.09228516 0.64941406 C32.73053849 10.51511832 57.97146901 31.57732634 73 59.99609375 C81.13743226 75.98862341 86.04846399 93.18349185 86.375 111.1875 C86.41238281 111.98091797 86.44976562 112.77433594 86.48828125 113.59179688 C86.57563082 119.37142655 86.57563082 119.37142655 83.6640625 122.55078125 C81 124 81 124 78 124 C78.01160156 124.58007812 78.02320313 125.16015625 78.03515625 125.7578125 C78.07769072 129.44008208 78.10315937 132.59529784 77.1875 136.1875 C76.64949459 139.27907669 76.64949459 139.27907669 79.5 141.875 C79.96792969 142.37241699 80.43585938 142.86983398 80.91796875 143.38232422 C82.56953281 145.85147211 81.92250791 148.08531999 81.46289062 150.89501953 C77.89331803 167.12753796 67.84900024 182.76060443 57 195 C56.38898438 195.75410156 55.77796875 196.50820312 55.1484375 197.28515625 C37.41875393 218.67394473 10.02355529 231.2628088 -17 235 C-16.95784002 241.54341482 -16.88505058 248.08601244 -16.79248047 254.62890625 C-16.76452208 256.84758099 -16.74318474 259.06635068 -16.72900391 261.28515625 C-16.54712684 288.15446194 -11.23884874 310.35640781 7.5859375 330.63671875 C10.93926639 333.91950835 14.55952059 336.80032173 18.2265625 339.72265625 C30.13465263 349.50070773 38.5689355 360.53928276 41 376 C42.23108253 393.83274773 39.52728877 408.27524146 28.3125 422.625 C17.79797101 434.20463712 3.40794128 440.27560431 -12.04710197 441.11059952 C-17.66076462 441.27781405 -23.27531192 441.22990773 -28.890625 441.1953125 C-30.68951255 441.19157434 -32.48840215 441.18873117 -34.28729248 441.18673706 C-38.98241977 441.17916374 -43.67741991 441.15957068 -48.37249756 441.1373291 C-53.1793038 441.1167336 -57.98613094 441.10770627 -62.79296875 441.09765625 C-72.19536783 441.07631778 -81.59767327 441.04225959 -91 441 C-91.07782715 442.39847168 -91.07782715 442.39847168 -91.15722656 443.82519531 C-91.23424805 445.06366211 -91.31126953 446.30212891 -91.390625 447.578125 C-91.49938965 449.40972168 -91.49938965 449.40972168 -91.61035156 451.27832031 C-93.43603955 468.71615717 -103.02145305 483.51883594 -116.03515625 494.828125 C-119.52128066 497.3818604 -123.0899914 499.42124386 -126.9375 501.375 C-127.56914062 501.69678223 -128.20078125 502.01856445 -128.8515625 502.35009766 C-138.0518325 506.76128188 -147.14595673 508.54701238 -157.3125 508.4375 C-158.31651855 508.42920166 -159.32053711 508.42090332 -160.35498047 508.41235352 C-177.88183092 508.01574819 -192.9054983 501.12309149 -205.34375 488.81640625 C-216.17921227 477.32762934 -222.48129587 463.41711145 -223.54296875 447.74609375 C-223.62957764 446.48337646 -223.71618652 445.22065918 -223.80541992 443.91967773 C-223.86963135 442.95618408 -223.93384277 441.99269043 -224 441 C-224.98812683 441.00444122 -225.97625366 441.00888245 -226.99432373 441.01345825 C-236.35003883 441.05417012 -245.70573573 441.0840635 -255.06151962 441.10362434 C-259.87031524 441.11401913 -264.6790388 441.12809881 -269.48779297 441.15087891 C-274.13677927 441.17276193 -278.78569666 441.18460092 -283.43473053 441.18975449 C-285.19995456 441.19342269 -286.96517523 441.20058498 -288.73036957 441.21146011 C-309.18681668 441.33236802 -324.9849691 438.77550415 -340.625 424.625 C-341.40875 423.75875 -342.1925 422.8925 -343 422 C-343.55429687 421.38898438 -344.10859375 420.77796875 -344.6796875 420.1484375 C-355.41940932 407.47280016 -356.95124225 392.90177001 -356 377 C-353.01761559 356.89825939 -338.70633395 344.14801168 -323.671875 332.140625 C-308.70078303 319.84728932 -299.20501187 301.14896779 -297 282 C-296.6235533 275.87811263 -296.45267171 269.75336937 -296.41455078 263.62036133 C-296.277697 252.57595351 -296.277697 252.57595351 -293 248 C-290.11138291 246.55569145 -288.20352299 246.62311494 -285 247 C-282.328125 248.75 -282.328125 248.75 -280 252 C-279.31418412 256.13503216 -279.43569129 260.19504217 -279.5625 264.375 C-279.58352783 265.54587158 -279.60455566 266.71674316 -279.6262207 267.9230957 C-280.35396051 298.21343003 -290.72262025 323.6092115 -312.4921875 344.73046875 C-315.74581509 347.67495104 -319.16292838 350.36984175 -322.61328125 353.078125 C-331.12917768 359.93544258 -337.44854094 367.70481602 -339.78515625 378.67578125 C-340.8393167 390.07988072 -339.00792843 401.1205978 -331.71484375 410.08984375 C-324.1736071 418.48999118 -315.34560835 423.99842218 -303.79923439 424.63199902 C-301.55705863 424.66040956 -299.3144356 424.66220336 -297.07217407 424.64164734 C-295.82631543 424.65015286 -294.58045678 424.65865838 -293.29684484 424.66742164 C-289.87302358 424.68572426 -286.45057931 424.68192601 -283.02682734 424.66828239 C-279.32115852 424.65897018 -275.61562017 424.67855783 -271.9099884 424.69425964 C-264.66375808 424.72026603 -257.41777655 424.71928215 -250.17151739 424.70822146 C-244.27802145 424.69964125 -238.38459716 424.70051095 -232.49110031 424.70801735 C-231.22987454 424.70959968 -231.22987454 424.70959968 -229.94316947 424.71121398 C-228.23470309 424.71338505 -226.52623674 424.71557183 -224.81777041 424.71777413 C-208.81891338 424.73717726 -192.82019553 424.7252321 -176.8213499 424.70298818 C-163.11647786 424.68474386 -149.41187534 424.69563705 -135.70703125 424.72729492 C-119.76606104 424.76411647 -103.82525904 424.78105827 -87.88424623 424.76788265 C-86.18167458 424.76654164 -84.47910291 424.76523266 -82.77653122 424.76395607 C-81.93898741 424.7633254 -81.1014436 424.76269474 -80.23851968 424.76204496 C-74.35835962 424.75902662 -68.47832722 424.77023858 -62.59819412 424.78720665 C-55.42302115 424.80760107 -48.24822812 424.80655686 -41.07307459 424.77857425 C-37.41744665 424.76486754 -33.76248042 424.76047249 -30.10687828 424.78252411 C-9.59734837 425.45808625 -9.59734837 425.45808625 9 418 C10.33729672 416.67064187 11.67156004 415.33820881 13 414 C13.66 414 14.32 414 15 414 C15.2784375 413.42121094 15.556875 412.84242188 15.84375 412.24609375 C16.95400874 410.08934113 18.17946873 408.09563504 19.5 406.0625 C25.5685351 396.38854111 26.25164073 385.67147999 23.8125 374.64453125 C20.28778082 363.17224814 12.8143631 356.00468605 3.6875 348.75 C-16.56816713 332.39937827 -29.40807413 308.74374235 -33 283 C-33.23693758 279.20984788 -33.23565853 275.44085683 -33.1953125 271.64453125 C-33.19106766 270.10305672 -33.19106766 270.10305672 -33.18673706 268.53044128 C-33.175661 265.29100229 -33.15058083 262.05185354 -33.125 258.8125 C-33.11495392 256.59831132 -33.10583094 254.38411825 -33.09765625 252.16992188 C-33.07576309 246.77985112 -33.04241364 241.3899463 -33 236 C-34.2370166 235.93796387 -35.4740332 235.87592773 -36.74853516 235.81201172 C-38.38705234 235.72639128 -40.02556102 235.64060795 -41.6640625 235.5546875 C-42.4775415 235.51432373 -43.29102051 235.47395996 -44.12915039 235.43237305 C-49.91623749 235.12439325 -55.37207184 234.40698204 -61 233 C-61.89203125 232.81824219 -62.7840625 232.63648438 -63.703125 232.44921875 C-92.54313887 226.16456332 -118.88382462 206.4631759 -134.79589844 181.92724609 C-141.87348092 170.59909603 -147.19986914 158.79694066 -151 146 C-151.3403125 144.89527344 -151.680625 143.79054687 -152.03125 142.65234375 C-154.64548265 132.3043395 -157.96840286 108.93680571 -153 99 C-164.2734017 99.37448872 -175.00313901 100.27924454 -186 103 C-187.01078613 103.2472583 -187.01078613 103.2472583 -188.04199219 103.49951172 C-208.9621619 108.74167756 -226.4359431 119.08199829 -242 134 C-242.86625 134.825 -243.7325 135.65 -244.625 136.5 C-245.40875 137.325 -246.1925 138.15 -247 139 C-247.85271484 139.86044922 -247.85271484 139.86044922 -248.72265625 140.73828125 C-266.65787734 159.67188443 -278.38398588 187.4052614 -279.1953125 213.46484375 C-279.23072144 214.54415161 -279.23072144 214.54415161 -279.2668457 215.64526367 C-279.30995921 217.63286543 -279.30681787 219.62131487 -279.30078125 221.609375 C-280.27913012 226.35354719 -282.02393428 227.34763075 -286 230 C-288.625 230.5625 -288.625 230.5625 -291 230 C-294.02116884 227.90196608 -294.87700937 226.57223782 -295.65234375 222.96484375 C-298.3988631 191.64217923 -284.31243894 157.9314478 -264.6875 134.18359375 C-263.7931056 133.12118279 -262.89734399 132.05992082 -262 131 C-261.236875 130.08347656 -260.47375 129.16695312 -259.6875 128.22265625 C-254.35609959 122.04394399 -248.47522732 116.94765076 -242 112 C-240.98550781 111.19691406 -239.97101563 110.39382812 -238.92578125 109.56640625 C-226.27418582 99.83001278 -211.21282766 92.77404896 -196 88 C-196.474375 86.783125 -196.94875 85.56625 -197.4375 84.3125 C-201.55007457 73.76285219 -200.87102587 62.54818573 -197 52 C-195.25656236 48.77195441 -193.2392364 45.89960103 -191 43 C-190.4225 42.13375 -189.845 41.2675 -189.25 40.375 C-180.51270937 31.15230434 -169.52904773 26.93036161 -156.9375 26.5 C-146.93645529 26.83336816 -138.80770907 29.83367883 -130.83984375 35.828125 C-128.94183931 37.26861153 -128.94183931 37.26861153 -126 37 C-123.9931781 35.11034285 -122.12439417 33.20134212 -120.25 31.1875 C-105.61743574 16.09165738 -88.10289394 6.08063853 -68 0 C-66.75089844 -0.39316406 -65.50179688 -0.78632812 -64.21484375 -1.19140625 C-44.23417021 -6.85961418 -19.78689755 -6.17137037 0 0 Z " fill="#020100" transform="translate(391,4)"/>
<path d="M0 0 C21.64929507 16.4348542 37.28008824 39.89271522 42 67 C42.55107889 71.66540318 42.94808291 76.34176409 43.22924805 81.03100586 C43.28894775 81.89218018 43.34864746 82.75335449 43.41015625 83.640625 C43.45277588 84.40922852 43.49539551 85.17783203 43.53930664 85.96972656 C44.11492088 88.50645576 44.96757577 89.41157675 47 91 C47.99 91.33 48.98 91.66 50 92 C50.22084624 98.09781001 50.01167675 103.21642935 48 109 C46.1128125 109.2165625 46.1128125 109.2165625 44.1875 109.4375 C40.98099233 110.23918735 40.98099233 110.23918735 38.9765625 112.71484375 C38.5086023 114.23709075 38.08404506 115.77301471 37.69140625 117.31640625 C34.12005309 131.17809901 26.09022112 143.18544828 17 154 C16.33097656 154.85335937 15.66195312 155.70671875 14.97265625 156.5859375 C-1.07497205 176.22442124 -28.39921901 187.39724051 -53 190 C-64.66714131 190.79016033 -75.76252158 190.45448411 -87 187 C-88.27101563 186.64808594 -89.54203125 186.29617187 -90.8515625 185.93359375 C-105.20239475 181.85679012 -117.41694842 175.53423884 -129 166 C-130.29550781 164.93458984 -130.29550781 164.93458984 -131.6171875 163.84765625 C-150.58259054 147.51141344 -164.63991485 123.23193256 -167 98 C-169.12124644 67.33690785 -162.15332975 39.6245213 -142 16 C-127.66637222 -0.40956578 -109.03309897 -11.51655984 -88 -17 C-87.05898438 -17.29777344 -86.11796875 -17.59554688 -85.1484375 -17.90234375 C-56.18921433 -26.19278099 -23.89930315 -17.05823868 0 0 Z " fill="#F23658" transform="translate(419,35)"/>
<path d="M0 0 C1.48935059 0.80860474 1.48935059 0.80860474 3.00878906 1.63354492 C4.3443069 2.35352752 5.67992424 3.07332557 7.015625 3.79296875 C7.99136475 4.32367981 7.99136475 4.32367981 8.98681641 4.8651123 C23.5489226 12.69066937 38.2748406 17.00107851 54.6875 18.6875 C56.47317383 18.88182617 56.47317383 18.88182617 58.29492188 19.08007812 C61.19586322 19.39463803 64.09740826 19.70112371 67 20 C67.00586624 20.55995163 67.01173248 21.11990326 67.01777649 21.69682312 C67.08229579 27.58701426 67.1668565 33.47668817 67.26245117 39.36645508 C67.29546525 41.5571404 67.32356829 43.74790597 67.34643555 45.9387207 C67.47993165 63.19220276 67.47993165 63.19220276 71 80 C71.22921143 80.81573486 71.45842285 81.63146973 71.69458008 82.47192383 C75.66756344 96.29638852 81.68752974 107.96589659 91 119 C91.65484375 119.78890625 92.3096875 120.5778125 92.984375 121.390625 C97.19605671 126.27863516 101.66362818 130.52862981 106.625 134.625 C117.41698854 143.54511479 124.18876327 151.84971308 126 166 C126.99457871 177.12684935 123.22641044 186.58751519 117.1875 195.75 C109.46839608 203.68964974 99.71556236 209.11390564 88.49707031 209.56762695 C86.19060369 209.56684941 83.88402414 209.53944824 81.578125 209.48828125 C79.73912628 209.47766914 79.73912628 209.47766914 77.86297607 209.46684265 C73.99133283 209.43911125 70.12119762 209.37640901 66.25 209.3125 C63.60679189 209.28738985 60.96356085 209.26458148 58.3203125 209.24414062 C51.87970381 209.18935425 45.43995968 209.10594252 39 209 C39.78769775 208.21246338 40.57539551 207.42492676 41.38696289 206.61352539 C51.91229918 196.0862223 58.1759056 185.79952914 58.1875 170.75 C58.20586914 169.51830078 58.20586914 169.51830078 58.22460938 168.26171875 C58.25578102 155.14884537 53.45059188 144.92747412 44.51953125 135.43359375 C41.11090289 132.14122868 37.46128479 129.21827571 33.76171875 126.26171875 C24.46768753 118.65034099 17.99491952 110.27359965 12 100 C11.25943359 98.73542969 11.25943359 98.73542969 10.50390625 97.4453125 C4.55540487 86.43780527 0.95699078 73.55157714 0.79467773 61.07666016 C0.78477814 60.4125412 0.77487854 59.74842224 0.76467896 59.06417847 C0.73332413 56.88917493 0.70841058 54.71414961 0.68359375 52.5390625 C0.66300169 51.02305565 0.64200465 49.50705424 0.62062073 47.99105835 C0.56563249 44.01601599 0.51612148 40.04092383 0.46777344 36.0657959 C0.41738781 32.00345468 0.36179112 27.94118508 0.30664062 23.87890625 C0.19934375 15.91933154 0.09783652 7.95969659 0 0 Z " fill="#F6C82A" transform="translate(291,220)"/>
<path d="M0 0 C7.60767894 3.3668026 13.69932252 7.60086641 20 13 C20.73992187 13.59425781 21.47984375 14.18851563 22.2421875 14.80078125 C42.61431982 31.72922572 54.55375955 57.73754443 56.96875 83.79931641 C57.11154002 85.6437937 57.23359325 87.49002707 57.33203125 89.33740234 C57.40550781 90.58191162 57.40550781 90.58191162 57.48046875 91.8515625 C57.51035889 92.58197754 57.54024902 93.31239258 57.57104492 94.06494141 C58.12150136 96.54810462 59.0195202 97.44050727 61 99 C61.99 99.33 62.98 99.66 64 100 C64.22084624 106.09781001 64.01167675 111.21642935 62 117 C60.1128125 117.2165625 60.1128125 117.2165625 58.1875 117.4375 C54.98099233 118.23918735 54.98099233 118.23918735 52.9765625 120.71484375 C52.5086023 122.23709075 52.08404506 123.77301471 51.69140625 125.31640625 C48.12005309 139.17809901 40.09022112 151.18544828 31 162 C29.99646484 163.28003906 29.99646484 163.28003906 28.97265625 164.5859375 C12.92502795 184.22442124 -14.39921901 195.39724051 -39 198 C-50.65899886 198.78960888 -61.77315553 198.46912226 -73 195 C-74.42422898 194.58507777 -75.84872555 194.17107332 -77.2734375 193.7578125 C-78.74560077 193.32042244 -80.21696829 192.88034451 -81.6875 192.4375 C-82.38399658 192.22778564 -83.08049316 192.01807129 -83.7980957 191.80200195 C-88.76096586 190.23903414 -88.76096586 190.23903414 -91 188 C-90.36610352 187.98018066 -89.73220703 187.96036133 -89.07910156 187.93994141 C-59.23598473 186.95890179 -33.05595281 181.08504056 -10 161 C-9.34128906 160.484375 -8.68257813 159.96875 -8.00390625 159.4375 C11.46450499 143.76875856 24.66650246 117.20152637 27.75244141 92.72314453 C29.25542368 76.19033949 29.62129723 58.80137831 24 43 C23.63793457 41.96045166 23.63793457 41.96045166 23.26855469 40.89990234 C19.21371191 29.56929451 11.25953002 7.62976501 0 2 C0 1.34 0 0.68 0 0 Z " fill="#CA2A59" transform="translate(405,27)"/>
<path d="M0 0 C33.33 0 66.66 0 101 0 C101 15.09861571 96.76251526 28.08172421 86.08203125 39.109375 C74.26730815 49.83794156 59.6748683 53.89435041 44.03466797 53.18359375 C31.40324929 52.04382571 19.64393429 44.38040813 11.34375 35.16015625 C2.80857409 24.51295977 0 13.44414177 0 0 Z " fill="#F6C82A" transform="translate(183,444)"/>
<path d="M0 0 C2.18249512 1.43310547 2.18249512 1.43310547 4 4 C4.59874512 7.18690048 4.5462212 10.33556886 4.51757812 13.5703125 C4.5245874 14.53982849 4.53159668 15.50934448 4.53881836 16.50823975 C4.55642855 19.71411755 4.54476452 22.91911316 4.53125 26.125 C4.53394403 28.35172699 4.53782571 30.57845283 4.54284668 32.80517578 C4.54874584 37.47244464 4.54016504 42.13940734 4.52148438 46.80664062 C4.49869492 52.79253508 4.51181572 58.77771219 4.53577423 64.76358032 C4.55022071 69.36179012 4.54563143 73.95982954 4.53526306 78.55804443 C4.53259261 80.76527999 4.53587668 82.97253097 4.54518127 85.17974854 C4.55532762 88.26347901 4.53987184 91.34604395 4.51757812 94.4296875 C4.52567505 95.34409607 4.53377197 96.25850464 4.54211426 97.20062256 C4.45951059 103.36064391 4.45951059 103.36064391 2.15515137 106.56689453 C-0.80265498 108.53373942 -2.51749467 108.58041755 -6 108 C-8.30275556 106.1329009 -9.67823871 104.64352259 -11 102 C-11.12197488 99.59026385 -11.18559594 97.20745118 -11.20532227 94.79638672 C-11.21522186 94.0548233 -11.22512146 93.31325989 -11.23532104 92.54922485 C-11.26696363 90.09274512 -11.29170431 87.63624603 -11.31640625 85.1796875 C-11.3369734 83.478602 -11.35796981 81.77752164 -11.37937927 80.07644653 C-11.43462464 75.59499264 -11.48402303 71.11349244 -11.53222656 66.63195801 C-11.5824236 62.06058623 -11.63811904 57.48928187 -11.69335938 52.91796875 C-11.80097109 43.94537006 -11.90240936 34.97271289 -12 26 C-12.88171875 26.72703125 -12.88171875 26.72703125 -13.78125 27.46875 C-17.01082493 29.69761157 -19.16936703 29.54723328 -23 29 C-25.66106976 26.61186047 -26.77849624 24.98446115 -27.5625 21.5 C-26.75751382 17.92228364 -24.62845003 16.51754496 -22 14 C-21.175 13.16339844 -20.35 12.32679687 -19.5 11.46484375 C-18.675 10.63082031 -17.85 9.79679687 -17 8.9375 C-16.175 8.10089844 -15.35 7.26429687 -14.5 6.40234375 C-6.80703556 -0.99011426 -6.80703556 -0.99011426 0 0 Z " fill="#040101" transform="translate(360,64)"/>
<path d="M0 0 C3.91781336 2.02886763 6.53336988 3.54160013 9.5 6.8125 C9.28822167 12.01619618 7.090183 16.01295679 4.6875 20.5 C1.31103443 26.82849737 -1.00701598 32.95679395 -3.5 39.8125 C-13.4 40.1425 -23.3 40.4725 -33.5 40.8125 C-37.43244411 31.96450075 -39.63372501 24.77976534 -36.734375 15.3125 C-35.79141581 13.33677598 -34.75694599 11.60190228 -33.5 9.8125 C-32.9225 8.925625 -32.345 8.03875 -31.75 7.125 C-23.43017876 -1.42592739 -11.3705129 -3.90792385 0 0 Z " fill="#F4C62A" transform="translate(244.5,48.1875)"/>
<path d="M0 0 C33.33 0 66.66 0 101 0 C101 15.09861571 96.76251526 28.08172421 86.08203125 39.109375 C76.03614994 48.23171375 63.25766609 53.21762337 49.75 53.0625 C49.00492188 53.05798828 48.25984375 53.05347656 47.4921875 53.04882812 C45.6614236 53.03709246 43.83070127 53.0191585 42 53 C42 52.67 42 52.34 42 52 C42.8353125 51.79697266 42.8353125 51.79697266 43.6875 51.58984375 C54.82211237 48.44882979 61.17598566 40.41667415 67.01757812 30.76464844 C72.34825528 21.18956531 73.44259887 11.90180791 75 1 C50.25 1 25.5 1 0 1 C0 0.67 0 0.34 0 0 Z " fill="#EDB21D" transform="translate(183,444)"/>
<path d="M0 0 C7.09520255 -0.44345016 12.74533876 1.13814818 18.5625 5.3125 C21 8 21 8 20.90625 10.64453125 C19.76335091 14.87621367 17.96387586 18.50423713 15.9375 22.375 C15.56044922 23.11105469 15.18339844 23.84710938 14.79492188 24.60546875 C13.87055636 26.40739646 12.93627386 28.20423099 12 30 C11.67 30 11.34 30 11 30 C10.97421875 29.23816406 10.9484375 28.47632812 10.921875 27.69140625 C10.3005534 16.38052892 6.4701581 9.12292292 0 0 Z " fill="#EDB21C" transform="translate(233,47)"/>
<path d="M0 0 C4.2384375 0.0309375 4.2384375 0.0309375 8.5625 0.0625 C8.2325 6.6625 7.9025 13.2625 7.5625 20.0625 C6.9025 18.7425 6.2425 17.4225 5.5625 16.0625 C-1.58296198 10.36174891 -10.11099284 6.67638943 -18.4375 3.0625 C-14.03864973 -1.33635027 -5.91998548 -0.06152473 0 0 Z " fill="#F1C52B" transform="translate(229.4375,102.9375)"/>
</svg>
