<svg width="27" height="52" viewBox="0 0 27 52" fill="none" xmlns="http://www.w3.org/2000/svg">
<path d="M7.295 41.9802C7.16045 41.5294 7.409 41.0437 7.86702 40.897L13.3028 39.224C13.7536 39.0895 14.2393 39.338 14.386 39.7961C14.523 40.2565 14.272 40.7325 13.814 40.8792L8.37819 42.5522C7.91772 42.6892 7.4417 42.4382 7.295 41.9802Z" fill="#00BDBC"/>
<path d="M10.1902 29.0602C10.1902 29.5902 9.75018 30.0102 9.22018 30.0002L2.94017 29.9102C2.41017 29.9102 1.99017 29.4702 2.00017 28.9402C2.00017 28.4102 2.44018 27.9902 2.97018 28.0002L9.25017 28.0902C9.78017 28.0902 10.2002 28.5302 10.1902 29.0602Z" fill="#FF2B77"/>
<path d="M14.1509 15.1909C13.9409 15.8409 13.2309 16.1909 12.5809 15.9809L4.8509 13.4209C4.2009 13.2109 3.8509 12.5009 4.0609 11.8509C4.2709 11.2009 4.98091 10.8509 5.63091 11.0609L13.3609 13.6209C14.0109 13.8309 14.3609 14.5409 14.1509 15.1909Z" fill="#EE9000"/>
<path d="M25.9298 7.40198C25.5405 7.91623 24.8046 8.01094 24.2903 7.62166L18.1762 2.97162C17.662 2.58234 17.5673 1.84638 17.9565 1.33212C18.3458 0.817864 19.0818 0.723156 19.596 1.11244L25.7101 5.76248C26.2244 6.15176 26.3191 6.88772 25.9298 7.40198Z" fill="#0060C0"/>
<path d="M19.1307 49.3939C18.8772 49.0385 18.9613 48.5264 19.3251 48.2786L23.6407 45.235C23.9961 44.9815 24.5082 45.0657 24.756 45.4294C25.0095 45.7849 24.9253 46.2969 24.5616 46.5447L20.246 49.5883C19.8905 49.8418 19.3785 49.7577 19.1307 49.3939Z" fill="#81C042"/>
</svg>
