<svg width="28" height="52" viewBox="0 0 28 52" fill="none" xmlns="http://www.w3.org/2000/svg">
<path d="M18.4779 40.9802C18.6125 40.5294 18.3639 40.0437 17.9059 39.897L12.4701 38.224C12.0194 38.0895 11.5336 38.338 11.3869 38.7961C11.2499 39.2565 11.501 39.7325 11.959 39.8792L17.3948 41.5522C17.8552 41.6892 18.3312 41.4382 18.4779 40.9802Z" fill="#00BDBC"/>
<path d="M15.5828 28.0602C15.5828 28.5902 16.0228 29.0102 16.5528 29.0002L22.8328 28.9102C23.3628 28.9102 23.7828 28.4702 23.7728 27.9402C23.7728 27.4102 23.3328 26.9902 22.8028 27.0002L16.5228 27.0902C15.9928 27.0902 15.5728 27.5302 15.5828 28.0602Z" fill="#FF2B77"/>
<path d="M11.622 14.1909C11.832 14.8409 12.542 15.1909 13.192 14.9809L20.922 12.4209C21.572 12.2109 21.9221 11.5009 21.7121 10.8509C21.5021 10.2009 20.792 9.8509 20.142 10.0609L12.412 12.6209C11.762 12.8309 11.412 13.5409 11.622 14.1909Z" fill="#EE9000"/>
<path d="M2.3019 7.92506C2.75867 8.38043 3.50065 8.37228 3.95602 7.91551L9.36704 2.46335C9.82241 2.00658 9.81426 1.26459 9.35749 0.809221C8.90073 0.353848 8.15875 0.362001 7.70338 0.818767L2.29235 6.27094C1.83698 6.7277 1.84513 7.46969 2.3019 7.92506Z" fill="#0060C0"/>
<path d="M8.6423 49.3939C8.89575 49.0385 8.81161 48.5264 8.44789 48.2786L4.13228 45.235C3.7768 44.9815 3.26473 45.0657 3.01693 45.4294C2.76347 45.7849 2.84762 46.2969 3.21134 46.5447L7.52695 49.5883C7.88242 49.8418 8.39449 49.7577 8.6423 49.3939Z" fill="#81C042"/>
</svg>
