<svg xmlns="http://www.w3.org/2000/svg" data-name="Layer 1" viewBox="0 0 32 32"><rect width="27" height="28" x="2.5" y="3.5" fill="#d9d8da" rx="2" ry="2"/><rect width="3" height="3" x="5.5" y="13.5" fill="#57565d"/><rect width="3" height="3" x="5.5" y="19.5" fill="#57565d"/><rect width="3" height="3" x="5.5" y="25.5" fill="#57565d"/><rect width="3" height="3" x="17.5" y="13.5" fill="#57565d"/><rect width="3" height="3" x="17.5" y="19.5" fill="#57565d"/><rect width="3" height="3" x="11.5" y="19.5" fill="#57565d"/><rect width="3" height="3" x="11.5" y="25.5" fill="#57565d"/><rect width="3" height="3" x="17.5" y="25.5" fill="#57565d"/><rect width="3" height="3" x="23.5" y="13.5" fill="#57565d"/><rect width="3" height="3" x="23.5" y="19.5" fill="#57565d"/><polyline fill="none" stroke="#000" stroke-linecap="round" stroke-linejoin="round" points="14.45 13.429 12.45 16.429 11.45 14.429"/><polyline fill="none" stroke="#000" stroke-linecap="round" stroke-linejoin="round" points="26.45 25.429 24.45 28.429 23.45 26.429"/><path fill="#ed456a" d="M29.5,5.5v5H2.5v-5a2.006,2.006,0,0,1,2-2h23A2.006,2.006,0,0,1,29.5,5.5Z"/><rect width="3" height="6" x="5.5" y=".5" fill="#57565d" rx="1.5" ry="1.5"/><rect width="3" height="6" x="23.5" y=".5" fill="#57565d" rx="1.5" ry="1.5"/><path d="M14.5,25h-3a.5.5,0,0,0-.5.5v3a.5.5,0,0,0,.5.5h3a.5.5,0,0,0,.5-.5v-3A.5.5,0,0,0,14.5,25ZM14,28H12V26h2Zm3.5,1h3a.5.5,0,0,0,.5-.5v-3a.5.5,0,0,0-.5-.5h-3a.5.5,0,0,0-.5.5v3A.5.5,0,0,0,17.5,29Zm.5-3h2v2H18ZM5.5,17h3a.5.5,0,0,0,.5-.5v-3a.5.5,0,0,0-.5-.5h-3a.5.5,0,0,0-.5.5v3A.5.5,0,0,0,5.5,17ZM6,14H8v2H6Zm8.5,5h-3a.5.5,0,0,0-.5.5v3a.5.5,0,0,0,.5.5h3a.5.5,0,0,0,.5-.5v-3A.5.5,0,0,0,14.5,19ZM14,22H12V20h2ZM27.5,3H27V2a2,2,0,0,0-4,0V3H9V2A2,2,0,0,0,5,2V3H4.5A2.5,2.5,0,0,0,2,5.5v24A2.5,2.5,0,0,0,4.5,32h23A2.5,2.5,0,0,0,30,29.5V5.5A2.5,2.5,0,0,0,27.5,3ZM24,2a1,1,0,0,1,2,0V5a1,1,0,0,1-2,0ZM6,2A1,1,0,0,1,8,2V5A1,1,0,0,1,6,5ZM29,29.5A1.5,1.5,0,0,1,27.5,31H4.5A1.5,1.5,0,0,1,3,29.5V11H29ZM29,10H3V5.5A1.5,1.5,0,0,1,4.5,4H5V5A2,2,0,0,0,9,5V4H23V5a2,2,0,0,0,4,0V4h.5A1.5,1.5,0,0,1,29,5.5Zm-5.5,7h3a.5.5,0,0,0,.5-.5v-3a.5.5,0,0,0-.5-.5h-3a.5.5,0,0,0-.5.5v3A.5.5,0,0,0,23.5,17Zm.5-3h2v2H24Zm-.5,9h3a.5.5,0,0,0,.5-.5v-3a.5.5,0,0,0-.5-.5h-3a.5.5,0,0,0-.5.5v3A.5.5,0,0,0,23.5,23Zm.5-3h2v2H24Zm-6.5-3h3a.5.5,0,0,0,.5-.5v-3a.5.5,0,0,0-.5-.5h-3a.5.5,0,0,0-.5.5v3A.5.5,0,0,0,17.5,17Zm.5-3h2v2H18Zm-6,2.653a.5.5,0,0,0,.416.275h.031a.5.5,0,0,0,.416-.223l2-3a.5.5,0,1,0-.832-.555l-1.522,2.283L11.9,14.206a.5.5,0,1,0-.895.447ZM5.5,23h3a.5.5,0,0,0,.5-.5v-3a.5.5,0,0,0-.5-.5h-3a.5.5,0,0,0-.5.5v3A.5.5,0,0,0,5.5,23ZM6,20H8v2H6Zm11.5,3h3a.5.5,0,0,0,.5-.5v-3a.5.5,0,0,0-.5-.5h-3a.5.5,0,0,0-.5.5v3A.5.5,0,0,0,17.5,23Zm.5-3h2v2H18ZM5.5,29h3a.5.5,0,0,0,.5-.5v-3a.5.5,0,0,0-.5-.5h-3a.5.5,0,0,0-.5.5v3A.5.5,0,0,0,5.5,29ZM6,26H8v2H6Zm18,2.653a.5.5,0,0,0,.416.275h.031a.5.5,0,0,0,.416-.223l2-3a.5.5,0,1,0-.832-.555l-1.522,2.283L23.9,26.206a.5.5,0,1,0-.895.447Z"/></svg>