<?xml version="1.0" encoding="UTF-8"?>
<svg version="1.1" xmlns="http://www.w3.org/2000/svg" width="512" height="512">
<path d="M0 0 C0.98451141 0.00021149 1.96902283 0.00042297 2.98336792 0.00064087 C19.34595739 0.0355934 35.1221946 1.03328564 51.1875 4.375 C52.0959668 4.56223633 53.00443359 4.74947266 53.94042969 4.94238281 C71.05222441 8.599721 87.66061791 14.32338673 103.8125 21 C104.70767334 21.3599707 105.60284668 21.71994141 106.52514648 22.09082031 C110.24277797 23.67795326 112.68422458 24.75957145 115.2734375 27.92578125 C116.60588512 31.49605757 116.24428563 33.74229941 115.1875 37.375 C113.125 39.875 113.125 39.875 110.1875 41.375 C104.09788019 41.07213002 99.71910004 39.48743712 94.3125 36.8125 C76.61817223 28.54736159 57.43134184 23.47058139 38.1875 20.375 C37.5167041 20.26462402 36.8459082 20.15424805 36.15478516 20.04052734 C1.60761811 14.54104099 -34.32256999 17.57411313 -67.8125 27.375 C-68.56257324 27.59381836 -69.31264648 27.81263672 -70.08544922 28.03808594 C-114.83293807 41.39352012 -157.0086417 69.52451224 -185.8125 106.375 C-186.96105469 107.78072266 -186.96105469 107.78072266 -188.1328125 109.21484375 C-206.11926577 131.68345178 -219.36110664 157.91954882 -227.8125 185.375 C-228.04517578 186.11733887 -228.27785156 186.85967773 -228.51757812 187.62451172 C-234.14350764 205.80459877 -237.87758689 224.90321521 -238.05078125 243.96484375 C-238.06052979 244.85873306 -238.07027832 245.75262238 -238.08032227 246.67359924 C-238.25008793 266.27293916 -238.06120412 285.14935202 -233.8125 304.375 C-233.63058105 305.24302246 -233.44866211 306.11104492 -233.26123047 307.00537109 C-225.92582685 341.49291212 -210.82071634 374.77550708 -188.8125 402.375 C-188.10738281 403.2721875 -187.40226562 404.169375 -186.67578125 405.09375 C-165.44004144 431.62889346 -139.85608121 452.54859555 -109.8125 468.375 C-109.12833008 468.73948242 -108.44416016 469.10396484 -107.73925781 469.47949219 C-85.69462364 481.05880165 -61.29397427 488.25402371 -36.8125 492.375 C-35.74588135 492.5596582 -35.74588135 492.5596582 -34.65771484 492.74804688 C23.89325681 502.61602415 88.07752518 486.78327301 136.43505859 452.63232422 C154.93477144 439.35933436 172.20975176 424.42666482 186.1875 406.375 C186.63561035 405.80861816 187.0837207 405.24223633 187.54541016 404.65869141 C220.78750968 362.57453089 238.68241652 310.61370379 238.5625 257.0625 C238.56195618 256.14391205 238.56141235 255.2253241 238.56085205 254.27890015 C238.46660752 219.5022927 231.45119452 184.16913925 215.21875 153.12890625 C213.9324978 149.69402822 213.8763138 147.01545227 214.1875 143.375 C216.77966083 139.68313458 218.22899064 138.54616239 222.6875 137.75 C226.91668358 138.50521135 228.69962665 140.03843326 231.1875 143.375 C233.05687863 146.75420399 234.56731858 150.2543879 236.0625 153.8125 C236.49522217 154.82948975 236.92794434 155.84647949 237.3737793 156.89428711 C244.57845906 174.17510601 249.64460755 192.00518581 253.1875 210.375 C253.35266113 211.19258789 253.51782227 212.01017578 253.68798828 212.85253906 C259.10266483 240.7938379 258.66554343 273.48974616 253.1875 301.375 C253.02652832 302.27057617 252.86555664 303.16615234 252.69970703 304.08886719 C244.81047508 347.69563051 225.12100867 388.83356217 196.1875 422.375 C195.55328125 423.12007813 194.9190625 423.86515625 194.265625 424.6328125 C182.45448485 438.13779833 169.70389772 450.80918743 155.1875 461.375 C154.03755169 462.23149066 152.88781411 463.08826433 151.73828125 463.9453125 C143.54660474 469.9859414 135.03104922 475.34505071 126.1875 480.375 C125.55569824 480.73948242 124.92389648 481.10396484 124.27294922 481.47949219 C98.24416464 496.37750327 68.82611377 506.02291257 39.1875 510.375 C37.98504639 510.55160156 36.78259277 510.72820312 35.54370117 510.91015625 C23.82743596 512.51411689 12.18834274 512.77574553 0.375 512.75 C-0.61183777 512.74912384 -1.59867554 512.74824768 -2.61541748 512.74734497 C-67.56969852 512.55782667 -129.98321624 487.47829016 -176.8125 442.375 C-177.47185547 441.74287598 -178.13121094 441.11075195 -178.81054688 440.45947266 C-188.29880305 431.31502521 -197.0387044 422.01765991 -204.8125 411.375 C-205.67056152 410.22394983 -206.52863451 409.07290823 -207.38671875 407.921875 C-213.42486829 399.73069386 -218.78345521 391.21695895 -223.8125 382.375 C-224.17698242 381.74319824 -224.54146484 381.11139648 -224.91699219 380.46044922 C-239.84723018 354.37535999 -249.32635054 325.03914886 -253.8125 295.375 C-254.07740234 293.69132324 -254.07740234 293.69132324 -254.34765625 291.97363281 C-256.0045586 280.36052257 -256.21123513 268.84320055 -256.1875 257.125 C-256.18695618 256.11298523 -256.18641235 255.10097046 -256.18585205 254.05828857 C-256.1451051 237.52382605 -255.22136907 221.60435136 -251.8125 205.375 C-251.60351074 204.35970215 -251.39452148 203.3444043 -251.17919922 202.29833984 C-242.40130189 160.98633315 -223.39863066 122.3544774 -195.8125 90.375 C-195.17828125 89.62992187 -194.5440625 88.88484375 -193.890625 88.1171875 C-182.07948485 74.61220167 -169.32889772 61.94081257 -154.8125 51.375 C-153.66255169 50.51850934 -152.51281411 49.66173567 -151.36328125 48.8046875 C-143.17160474 42.7640586 -134.65604922 37.40494929 -125.8125 32.375 C-125.18069824 32.01051758 -124.54889648 31.64603516 -123.89794922 31.27050781 C-97.86916464 16.37249673 -68.45111377 6.72708743 -38.8125 2.375 C-37.61004639 2.19839844 -36.40759277 2.02179687 -35.16870117 1.83984375 C-23.45204738 0.23582992 -11.81361413 -0.02352293 0 0 Z " fill="#000000" transform="translate(255.8125,-0.375)"/>
<path d="M0 0 C0.74601471 0.00149048 1.49202942 0.00298096 2.26065063 0.0045166 C13.51362486 0.04488926 24.28559417 0.64857241 35.25 3.3125 C37.15072266 3.74755859 37.15072266 3.74755859 39.08984375 4.19140625 C56.8539804 8.57285998 76.88488868 15.59653908 91.25 27.3125 C92.85776409 30.52802819 92.85485913 33.83456 92.25 37.3125 C89.87235516 40.10972922 88.33197251 41.12549241 84.71875 41.75 C79.44036002 41.08425712 75.45721316 38.41104931 70.875 35.8125 C59.08262644 29.40705836 47.16373652 24.90150628 34.25 21.3125 C33.5384375 21.1077002 32.826875 20.90290039 32.09375 20.69189453 C10.77835686 14.84197943 -16.70341826 16.42966477 -37.75 22.3125 C-38.52682129 22.52680664 -39.30364258 22.74111328 -40.10400391 22.96191406 C-63.34343946 29.58797433 -84.05342415 41.99139825 -101.75 58.3125 C-102.50796875 58.99957031 -103.2659375 59.68664062 -104.046875 60.39453125 C-130.27411344 85.31040777 -145.59246214 123.47915401 -146.75 159.3125 C-146.78996094 160.0859375 -146.82992187 160.859375 -146.87109375 161.65625 C-148.00377378 200.56714056 -132.06134595 237.93317391 -105.84057617 266.07519531 C-92.12464505 280.50193284 -75.87982183 291.20463165 -57.75 299.3125 C-56.71101563 299.78171875 -55.67203125 300.2509375 -54.6015625 300.734375 C-22.01065488 314.30693807 18.15406864 315.31555363 51.08837891 302.21582031 C65.11001533 296.3563156 78.44007552 289.9509337 90.25 280.3125 C91.12857666 279.60673828 91.12857666 279.60673828 92.02490234 278.88671875 C122.62164779 254.14163147 141.25699097 219.29345379 146.25 180.3125 C147.00722761 164.04128487 147.46368095 147.13593021 143.25 131.3125 C142.96793701 130.17941406 142.96793701 130.17941406 142.68017578 129.0234375 C138.68049536 113.19017594 132.45725674 97.67905514 123.23120117 84.13476562 C121.36058676 80.66070094 121.60535888 78.1803467 122.25 74.3125 C124.93113385 71.06264078 126.60133418 70.41674986 130.75 69.75 C135.27769963 70.47766601 136.26368852 71.86675598 139.25 75.3125 C141.05829821 78.01996186 142.63585296 80.8266128 144.1875 83.6875 C144.84153809 84.88560303 144.84153809 84.88560303 145.50878906 86.10791016 C163.80727686 120.25286122 170.22376059 162.40348554 161.25 200.3125 C161.08902832 201.03147461 160.92805664 201.75044922 160.76220703 202.49121094 C154.07298729 231.70273152 138.95577596 257.87558789 118.25 279.3125 C116.97382812 280.68341797 116.97382812 280.68341797 115.671875 282.08203125 C103.96821766 294.32882238 90.26961522 303.60606097 75.25 311.3125 C74.63833984 311.63057617 74.02667969 311.94865234 73.39648438 312.27636719 C34.94568103 332.03867589 -10.79817735 333.91555815 -51.75 321.3125 C-73.26072277 313.98001021 -92.88172076 302.9388646 -109.51953125 287.38671875 C-111.56160319 285.48769913 -113.66451582 283.71412345 -115.8125 281.9375 C-120.77363159 277.60398144 -124.71815711 272.49728426 -128.75 267.3125 C-129.4821875 266.39597656 -130.214375 265.47945313 -130.96875 264.53515625 C-152.20376198 237.28106517 -163.0454111 204.68837619 -164.75 170.3125 C-164.83894531 168.58580078 -164.83894531 168.58580078 -164.9296875 166.82421875 C-165.76005858 130.51854984 -153.58026073 94.19861286 -131.75 65.3125 C-131.09 64.42949219 -130.43 63.54648438 -129.75 62.63671875 C-102.86096858 28.26153654 -63.67352787 6.48110848 -20.51879883 0.6875 C-13.68272161 0.00730212 -6.86465146 -0.03404544 0 0 Z " fill="#000000" transform="translate(255.75,91.6875)"/>
<path d="M0 0 C4.06968497 0.91101157 5.58801261 1.38477057 7.84228516 4.86010742 C9.12190923 9.63798024 9.26450415 14.60162911 9.59619141 19.51635742 C9.66136459 20.4550769 9.72653778 21.39379639 9.79368591 22.36096191 C9.93059927 24.34786846 10.06581897 26.33489235 10.19946289 28.32202148 C10.40221763 31.32211662 10.61310377 34.32156256 10.82470703 37.32104492 C11.50481065 47.18300919 12.08577862 56.96980304 11.84228516 66.86010742 C12.50228516 66.86010742 13.16228516 66.86010742 13.84228516 66.86010742 C14.17228516 67.52010742 14.50228516 68.18010742 14.84228516 68.86010742 C17.29131984 69.29979723 17.29131984 69.29979723 20.29248047 69.42260742 C21.45749084 69.49608398 22.62250122 69.56956055 23.82281494 69.64526367 C25.09252136 69.71616211 26.36222778 69.78706055 27.67041016 69.86010742 C29.65100122 69.98418864 31.63159175 70.10827903 33.61214828 70.23291016 C37.10505036 70.45000189 40.59869909 70.6543719 44.09228516 70.86010742 C48.2429599 71.10544154 52.39340288 71.35344087 56.54315186 71.61401367 C59.13027293 71.77561605 61.71788936 71.92950932 64.30596924 72.07495117 C65.48358826 72.14842773 66.66120728 72.2219043 67.87451172 72.29760742 C68.90852112 72.35819336 69.94253052 72.4187793 71.00787354 72.48120117 C75.07687292 73.02514803 77.92200968 73.93983194 80.84228516 76.86010742 C82.01888193 80.41411166 81.8350276 83.26899402 80.84228516 86.86010742 C77.27182022 91.94678157 72.90549909 96.15715915 68.47119141 100.48901367 C67.19076881 101.77109517 65.91197912 103.05480935 64.63475037 104.34007263 C61.95758812 107.02294018 59.26377061 109.68747604 56.55639648 112.33984375 C53.09556725 115.73250436 49.67634367 119.1637748 46.26825047 122.60931492 C43.63467551 125.2640777 40.98186933 127.89891805 38.32273674 130.52805901 C37.05456146 131.78590449 35.79195905 133.04939552 34.53521919 134.31866646 C32.7716894 136.09316068 30.98429391 137.83957349 29.18823242 139.58105469 C28.42325439 140.36561035 28.42325439 140.36561035 27.64282227 141.16601562 C22.59605261 145.95611736 17.68394185 145.85112379 11.12132263 145.86647034 C10.37238235 145.81095505 9.62344208 145.75543976 8.85180664 145.69824219 C7.9831749 145.6381044 7.11454315 145.57796661 6.21958923 145.51600647 C5.31003983 145.44522385 4.40049042 145.37444122 3.46337891 145.30151367 C2.00787376 145.19950905 2.00787376 145.19950905 0.52296448 145.09544373 C-2.55869901 144.87880399 -5.63945391 144.65169895 -8.72021484 144.42260742 C-11.7760226 144.19793353 -14.83193498 143.9758647 -17.88841248 143.76048279 C-19.78014219 143.62696303 -21.67152446 143.48835932 -23.56239319 143.34315491 C-25.34183855 143.21671346 -27.12319207 143.11446919 -28.90549088 143.03815269 C-31.20261035 142.91239528 -33.49598058 142.70580088 -35.78139782 142.44228458 C-42.46619738 141.94595957 -47.60162756 141.6552547 -53.10536629 146.04270631 C-55.87690081 148.55280594 -58.45093579 151.21926144 -61.01806641 153.93579102 C-62.20257461 155.12810123 -63.39065719 156.31686933 -64.58198547 157.50236511 C-67.78522646 160.70953329 -70.93702202 163.96320592 -74.08171177 167.22766447 C-77.3880263 170.64200073 -80.74107103 174.00980713 -84.08953857 177.38272095 C-90.41700446 183.77008617 -96.70343308 190.1962495 -102.97514606 196.6383177 C-111.5031968 205.39427716 -120.08715595 214.09500106 -128.67076063 222.79644704 C-130.73215529 224.88615283 -132.79336193 226.97604378 -134.85443115 229.06607056 C-135.85664157 230.08224235 -135.85664157 230.08224235 -136.87909865 231.11894286 C-140.84860326 235.14633944 -144.80780207 239.18353808 -148.75778341 243.23008323 C-151.21049681 245.74227163 -153.6667936 248.25093996 -156.12340355 250.7593174 C-157.26208636 251.92413009 -158.39892992 253.09074402 -159.53380013 254.25927162 C-161.08152224 255.85273258 -162.63537671 257.43996758 -164.19073486 259.02597046 C-165.49247587 260.36164849 -165.49247587 260.36164849 -166.82051468 261.72430992 C-168.93386935 263.65555128 -170.48145922 264.89980651 -173.15771484 265.86010742 C-176.51459905 265.68342931 -179.12189392 265.48159997 -182.03271484 263.73510742 C-183.83908384 260.72449243 -184.09846779 258.35568374 -184.15771484 254.86010742 C-181.66615112 250.55477828 -178.70712183 247.18335304 -175.15899658 243.72181702 C-174.66963615 243.24133122 -174.18027572 242.76084543 -173.67608619 242.26579946 C-172.04869568 240.67002888 -170.41421256 239.08172389 -168.77978516 237.49316406 C-167.60625221 236.34477364 -166.43327772 235.1958123 -165.26081848 234.04632568 C-162.74152886 231.57729836 -160.21976453 229.11083519 -157.6964798 226.64589119 C-153.70292244 222.74169115 -149.72414146 218.82266618 -145.7489624 214.89976501 C-145.07683094 214.2365611 -144.40469948 213.57335719 -143.7122004 212.89005619 C-142.33819693 211.53415704 -140.96424867 210.17820192 -139.59035444 208.82219207 C-130.34173019 199.69420266 -121.08594761 190.57426316 -111.78027344 181.50439453 C-105.49537639 175.3785455 -99.23768132 169.22631373 -93.00995517 163.0423345 C-89.71715013 159.77473191 -86.41226759 156.52193895 -83.07376862 153.30098152 C-79.93164432 150.2690057 -76.82684886 147.20322619 -73.7463131 144.10873413 C-72.61449085 142.98419048 -71.46988336 141.87233665 -70.31155586 140.77511406 C-65.09785958 135.82400614 -60.68458493 131.54339305 -60.41367507 123.93032306 C-60.48728121 120.88223704 -60.7948821 117.88606645 -61.15771484 114.86010742 C-61.2611911 112.92254483 -61.35541791 110.98442215 -61.43310547 109.0456543 C-61.55511425 107.22305095 -61.68212241 105.40077583 -61.81396484 103.57885742 C-61.88055298 102.59566528 -61.94714111 101.61247314 -62.01574707 100.5994873 C-62.22497956 97.51934486 -62.44086109 94.43972183 -62.65771484 91.36010742 C-62.8735912 88.25187431 -63.08796644 85.1435535 -63.29968262 82.03503418 C-63.43059474 80.11712805 -63.56399065 78.19938922 -63.70031738 76.28186035 C-63.87066896 73.80862048 -64.01910395 71.33530201 -64.15771484 68.86010742 C-64.233125 67.5974707 -64.30853516 66.33483398 -64.38623047 65.03393555 C-63.95141662 58.99485433 -59.9021326 55.29153971 -55.81933594 51.15185547 C-55.28715454 50.60492538 -54.75497314 50.0579953 -54.20666504 49.49449158 C-52.45412551 47.69764742 -50.69370687 45.90884501 -48.93115234 44.12182617 C-48.32731342 43.50858805 -47.7234745 42.89534992 -47.10133743 42.26352882 C-43.90711865 39.02185117 -40.70607674 35.78707692 -37.5 32.55712891 C-34.19589674 29.22526435 -30.91836229 25.86846995 -27.64594078 22.50552654 C-25.1180379 19.91778071 -22.57035048 17.35021065 -20.01698685 14.78760719 C-18.79974672 13.55879925 -17.59013775 12.32238156 -16.38856125 11.07825279 C-5.80553631 0.14286636 -5.80553631 0.14286636 0 0 Z M-11.50927734 31.07885742 C-12.19634766 31.76463867 -12.88341797 32.45041992 -13.59130859 33.15698242 C-14.67605469 34.2475293 -14.67605469 34.2475293 -15.78271484 35.36010742 C-16.48267578 36.05620117 -17.18263672 36.75229492 -17.90380859 37.46948242 C-21.29497856 40.86694398 -24.57407246 44.29709199 -27.68505859 47.95385742 C-30.00921134 50.66049931 -32.41315424 53.03963793 -35.12255859 55.36010742 C-42.69571322 61.76331472 -42.69571322 61.76331472 -47.19677734 70.33276367 C-47.21849581 73.65930895 -46.96189177 76.81940553 -46.49414062 80.1105957 C-46.06953792 83.58075223 -45.85706034 87.05521538 -45.65380859 90.54370117 C-45.57244274 91.92318273 -45.4909804 93.30265861 -45.40942383 94.68212891 C-45.34837967 95.71598221 -45.34837967 95.71598221 -45.28610229 96.77072144 C-44.95636159 102.13694379 -44.55147421 107.49827782 -44.15771484 112.86010742 C-43.16787598 111.99772461 -42.17803711 111.1353418 -41.15820312 110.24682617 C-38.58996246 108.04200135 -35.97992393 105.92879724 -33.28613281 103.87963867 C-13.34108839 89.15525948 -13.34108839 89.15525948 -2.91992188 67.80883789 C-1.97508254 54.41805465 -4.3380626 40.91252145 -7.15771484 27.86010742 C-9.03415542 27.86010742 -10.25869088 29.83054416 -11.50927734 31.07885742 Z M5.88067627 87.33396912 C5.19672791 88.02378372 4.51277954 88.71359833 3.80810547 89.42431641 C3.02759827 90.20189804 2.24709106 90.97947968 1.44293213 91.78062439 C0.19428375 93.0555349 0.19428375 93.0555349 -1.07958984 94.35620117 C-2.36956879 95.65111229 -2.36956879 95.65111229 -3.68560791 96.97218323 C-5.50242042 98.79942663 -7.31445677 100.6314294 -9.12207031 102.46777344 C-11.90154345 105.29133813 -14.69417717 108.10131463 -17.48974609 110.90893555 C-19.24963962 112.68225138 -21.00878041 114.45631464 -22.76708984 116.23120117 C-23.60761902 117.07911728 -24.44814819 117.92703339 -25.31414795 118.80064392 C-26.46599579 119.97174461 -26.46599579 119.97174461 -27.64111328 121.16650391 C-28.32187927 121.85711411 -29.00264526 122.5477243 -29.70404053 123.25926208 C-31.26975777 124.62309746 -31.26975777 124.62309746 -31.15771484 125.86010742 C-27.01792809 126.15157073 -22.87772793 126.43599652 -18.73706055 126.71459961 C-17.33589433 126.80978883 -15.93484532 126.90672358 -14.53393555 127.00561523 C-13.86128662 127.05298828 -13.1886377 127.10036133 -12.49560547 127.14916992 C-11.82211563 127.1966185 -11.14862579 127.24406708 -10.45472717 127.29295349 C-8.37827906 127.42422134 -6.30260251 127.51177054 -4.22387695 127.59863281 C-1.50822005 127.7251898 0.8141847 128.05278213 3.51586914 128.58837891 C8.93414234 129.36608463 12.59810137 129.37561146 17.14620972 126.30426025 C23.55518898 121.04869943 29.13806277 114.97370163 34.77978516 108.92260742 C36.53867555 107.09698318 38.30101797 105.27467812 40.06689453 103.45581055 C47.88178667 96.79431825 47.88178667 96.79431825 52.84228516 88.86010742 C47.07663435 88.43099327 41.31084597 88.00379536 35.54492188 87.57836914 C33.58361986 87.43338783 31.62235642 87.28788384 29.66113281 87.1418457 C26.84140855 86.93197256 24.02155075 86.72398216 21.20166016 86.51635742 C20.32548035 86.45073608 19.44930054 86.38511475 18.54656982 86.31750488 C17.31574677 86.2274115 17.31574677 86.2274115 16.06005859 86.13549805 C14.98084137 86.05555603 14.98084137 86.05555603 13.87982178 85.97399902 C9.60339536 85.56662892 9.60339536 85.56662892 5.88067627 87.33396912 Z " fill="#000000" transform="translate(431.15771484375,-0.860107421875)"/>
<path d="M0 0 C2.4908162 2.33011838 2.93376919 3.55530742 3.4375 6.9375 C2.88875892 10.77868756 1.80483983 12.34677313 -1 15 C-5.59067359 16.61925578 -9.42692267 15.3153534 -13.9375 14.0625 C-29.56949896 10.12056138 -45.13169975 11.33542422 -59.375 19.1875 C-73.69103206 28.3365517 -83.58723934 41.12633565 -87.58764648 57.76733398 C-89.75619864 69.50884343 -88.61762892 82.04832088 -84 93 C-83.649375 93.87785156 -83.29875 94.75570312 -82.9375 95.66015625 C-76.39899994 110.34907826 -63.1233016 120.10745203 -48.58984375 125.97265625 C-35.06272661 130.467757 -18.63454079 129.25256645 -5.734375 123.55859375 C9.30053858 116.0236545 20.0024916 104.41904411 25.5 88.5 C29.10787294 76.60738179 28.83064144 65.40206361 25.4230957 53.55712891 C23.93818358 48.33314854 22.94789919 44.10420163 25.4375 39.125 C28.69318542 36.42516331 30.74024983 36.26249138 34.8828125 36.52734375 C37 37 37 37 39.375 38.9375 C48.01736492 55.22503388 47.98522139 75.57455505 43 93 C39.49258235 103.62990389 34.28920041 112.50018064 27 121 C26.07960938 122.08861328 26.07960938 122.08861328 25.140625 123.19921875 C12.46858288 136.9814184 -6.89137922 145.32401176 -25.3984375 146.28515625 C-34.93058856 146.5688936 -43.78754665 145.61911529 -53 143 C-53.92941406 142.74476563 -54.85882813 142.48953125 -55.81640625 142.2265625 C-74.55308585 136.28100769 -88.90347954 122.08148814 -98.39453125 105.29296875 C-107.065618 87.50774701 -109.42234003 65.5523812 -103.3828125 46.546875 C-95.61911108 26.63320017 -83.55850284 10.75162642 -64 1 C-44.55780948 -7.08598016 -19.37703546 -10.7650197 0 0 Z " fill="#000000" transform="translate(286,186)"/>
</svg>
